<mxfile host="app.diagrams.net" modified="2024-06-13T18:10:30.758Z" agent="Mozilla/5.0 (X11; Linux x86_64; rv:126.0) Gecko/20100101 Firefox/126.0" etag="2-Xb0iye_Q2f3Oqi5CJ_" version="24.5.4" type="github">
  <diagram id="R2lEEEUBdFMjLlhIrx00" name="Page-1">
    <mxGraphModel dx="919" dy="446" grid="1" gridSize="10" guides="1" tooltips="1" connect="1" arrows="1" fold="1" page="1" pageScale="1" pageWidth="850" pageHeight="1100" math="0" shadow="0" extFonts="Permanent Marker^https://fonts.googleapis.com/css?family=Permanent+Marker">
      <root>
        <mxCell id="0" />
        <mxCell id="1" parent="0" />
        <mxCell id="QB1D0kBepASb9x_ZZ9DH-1" value="User" style="whiteSpace=wrap;html=1;align=center;" parent="1" vertex="1">
          <mxGeometry x="375" y="570" width="100" height="40" as="geometry" />
        </mxCell>
        <mxCell id="QB1D0kBepASb9x_ZZ9DH-2" value="Admain" style="whiteSpace=wrap;html=1;align=center;" parent="1" vertex="1">
          <mxGeometry x="100" y="570" width="100" height="40" as="geometry" />
        </mxCell>
        <mxCell id="QB1D0kBepASb9x_ZZ9DH-3" value="Donor" style="whiteSpace=wrap;html=1;align=center;" parent="1" vertex="1">
          <mxGeometry x="430" y="755" width="100" height="40" as="geometry" />
        </mxCell>
        <mxCell id="QB1D0kBepASb9x_ZZ9DH-4" value="Recipient" style="whiteSpace=wrap;html=1;align=center;" parent="1" vertex="1">
          <mxGeometry x="310" y="755" width="100" height="40" as="geometry" />
        </mxCell>
        <mxCell id="QB1D0kBepASb9x_ZZ9DH-5" value="OTP" style="shape=ext;margin=3;double=1;whiteSpace=wrap;html=1;align=center;" parent="1" vertex="1">
          <mxGeometry x="178.5" y="360" width="100" height="40" as="geometry" />
        </mxCell>
        <mxCell id="QB1D0kBepASb9x_ZZ9DH-7" value="Post" style="whiteSpace=wrap;html=1;align=center;" parent="1" vertex="1">
          <mxGeometry x="392.5" y="340" width="100" height="40" as="geometry" />
        </mxCell>
        <mxCell id="QB1D0kBepASb9x_ZZ9DH-8" value="BloodDontation" style="shape=ext;margin=3;double=1;whiteSpace=wrap;html=1;align=center;" parent="1" vertex="1">
          <mxGeometry x="675" y="488" width="100" height="40" as="geometry" />
        </mxCell>
        <mxCell id="QB1D0kBepASb9x_ZZ9DH-9" value="BloodBank" style="whiteSpace=wrap;html=1;align=center;" parent="1" vertex="1">
          <mxGeometry x="730" y="580" width="100" height="40" as="geometry" />
        </mxCell>
        <mxCell id="QB1D0kBepASb9x_ZZ9DH-12" value="UserID" style="ellipse;whiteSpace=wrap;html=1;align=center;fontStyle=4;" parent="1" vertex="1">
          <mxGeometry x="470" y="440" width="50" height="30" as="geometry" />
        </mxCell>
        <mxCell id="QB1D0kBepASb9x_ZZ9DH-13" value="address" style="ellipse;whiteSpace=wrap;html=1;align=center;" parent="1" vertex="1">
          <mxGeometry x="243.5" y="610" width="50" height="40" as="geometry" />
        </mxCell>
        <mxCell id="QB1D0kBepASb9x_ZZ9DH-14" value="password" style="ellipse;whiteSpace=wrap;html=1;align=center;" parent="1" vertex="1">
          <mxGeometry x="310" y="530" width="50" height="40" as="geometry" />
        </mxCell>
        <mxCell id="QB1D0kBepASb9x_ZZ9DH-15" value="Name" style="ellipse;whiteSpace=wrap;html=1;align=center;" parent="1" vertex="1">
          <mxGeometry x="365" y="470" width="50" height="40" as="geometry" />
        </mxCell>
        <mxCell id="QB1D0kBepASb9x_ZZ9DH-16" value="Phone.No" style="ellipse;shape=doubleEllipse;margin=3;whiteSpace=wrap;html=1;align=center;" parent="1" vertex="1">
          <mxGeometry x="482.5" y="640" width="65" height="40" as="geometry" />
        </mxCell>
        <mxCell id="QB1D0kBepASb9x_ZZ9DH-17" value="Email" style="ellipse;shape=doubleEllipse;margin=3;whiteSpace=wrap;html=1;align=center;" parent="1" vertex="1">
          <mxGeometry x="317.5" y="670" width="55" height="40" as="geometry" />
        </mxCell>
        <mxCell id="QB1D0kBepASb9x_ZZ9DH-18" value="isDenor" style="ellipse;whiteSpace=wrap;html=1;align=center;" parent="1" vertex="1">
          <mxGeometry x="540" y="565" width="60" height="30" as="geometry" />
        </mxCell>
        <mxCell id="QB1D0kBepASb9x_ZZ9DH-19" value="Blood&lt;br&gt;Group" style="ellipse;whiteSpace=wrap;html=1;align=center;" parent="1" vertex="1">
          <mxGeometry x="497.5" y="520" width="50" height="30" as="geometry" />
        </mxCell>
        <mxCell id="QB1D0kBepASb9x_ZZ9DH-20" value="has" style="shape=rhombus;perimeter=rhombusPerimeter;whiteSpace=wrap;html=1;align=center;" parent="1" vertex="1">
          <mxGeometry x="238.5" y="560" width="60" height="40" as="geometry" />
        </mxCell>
        <mxCell id="QB1D0kBepASb9x_ZZ9DH-21" value="" style="endArrow=none;html=1;rounded=0;entryX=0;entryY=0.5;entryDx=0;entryDy=0;" parent="1" source="QB1D0kBepASb9x_ZZ9DH-20" target="QB1D0kBepASb9x_ZZ9DH-1" edge="1">
          <mxGeometry relative="1" as="geometry">
            <mxPoint x="370" y="580" as="sourcePoint" />
            <mxPoint x="530" y="580" as="targetPoint" />
          </mxGeometry>
        </mxCell>
        <mxCell id="QB1D0kBepASb9x_ZZ9DH-22" value="" style="endArrow=none;html=1;rounded=0;" parent="1" source="QB1D0kBepASb9x_ZZ9DH-2" target="QB1D0kBepASb9x_ZZ9DH-20" edge="1">
          <mxGeometry relative="1" as="geometry">
            <mxPoint x="370" y="580" as="sourcePoint" />
            <mxPoint x="530" y="580" as="targetPoint" />
          </mxGeometry>
        </mxCell>
        <mxCell id="QB1D0kBepASb9x_ZZ9DH-23" value="" style="endArrow=none;html=1;rounded=0;entryX=0.25;entryY=0;entryDx=0;entryDy=0;" parent="1" source="QB1D0kBepASb9x_ZZ9DH-5" target="QB1D0kBepASb9x_ZZ9DH-1" edge="1">
          <mxGeometry relative="1" as="geometry">
            <mxPoint x="370" y="580" as="sourcePoint" />
            <mxPoint x="530" y="580" as="targetPoint" />
          </mxGeometry>
        </mxCell>
        <mxCell id="QB1D0kBepASb9x_ZZ9DH-24" value="" style="endArrow=none;html=1;rounded=0;" parent="1" source="QB1D0kBepASb9x_ZZ9DH-57" target="QB1D0kBepASb9x_ZZ9DH-7" edge="1">
          <mxGeometry relative="1" as="geometry">
            <mxPoint x="370" y="580" as="sourcePoint" />
            <mxPoint x="530" y="580" as="targetPoint" />
          </mxGeometry>
        </mxCell>
        <mxCell id="QB1D0kBepASb9x_ZZ9DH-25" value="" style="endArrow=none;html=1;rounded=0;" parent="1" source="EV8ZqtbG6k8P1l08Tk5u-41" target="EV8ZqtbG6k8P1l08Tk5u-40" edge="1">
          <mxGeometry relative="1" as="geometry">
            <mxPoint x="538.3333333333333" y="486.66666666666663" as="sourcePoint" />
            <mxPoint x="610" y="425" as="targetPoint" />
          </mxGeometry>
        </mxCell>
        <mxCell id="QB1D0kBepASb9x_ZZ9DH-26" value="" style="endArrow=none;html=1;rounded=0;entryX=1;entryY=0.5;entryDx=0;entryDy=0;exitX=0;exitY=1;exitDx=0;exitDy=0;" parent="1" source="EV8ZqtbG6k8P1l08Tk5u-15" target="QB1D0kBepASb9x_ZZ9DH-1" edge="1">
          <mxGeometry relative="1" as="geometry">
            <mxPoint x="370" y="580" as="sourcePoint" />
            <mxPoint x="530" y="580" as="targetPoint" />
          </mxGeometry>
        </mxCell>
        <mxCell id="QB1D0kBepASb9x_ZZ9DH-38" value="" style="endArrow=none;html=1;rounded=0;entryX=0;entryY=0.25;entryDx=0;entryDy=0;" parent="1" source="QB1D0kBepASb9x_ZZ9DH-14" target="QB1D0kBepASb9x_ZZ9DH-1" edge="1">
          <mxGeometry relative="1" as="geometry">
            <mxPoint x="80" y="510" as="sourcePoint" />
            <mxPoint x="240" y="510" as="targetPoint" />
          </mxGeometry>
        </mxCell>
        <mxCell id="QB1D0kBepASb9x_ZZ9DH-39" value="" style="endArrow=none;html=1;rounded=0;" parent="1" source="QB1D0kBepASb9x_ZZ9DH-1" target="QB1D0kBepASb9x_ZZ9DH-15" edge="1">
          <mxGeometry relative="1" as="geometry">
            <mxPoint x="370" y="580" as="sourcePoint" />
            <mxPoint x="530" y="580" as="targetPoint" />
          </mxGeometry>
        </mxCell>
        <mxCell id="QB1D0kBepASb9x_ZZ9DH-40" value="" style="endArrow=none;html=1;rounded=0;exitX=0.659;exitY=0.034;exitDx=0;exitDy=0;exitPerimeter=0;" parent="1" source="QB1D0kBepASb9x_ZZ9DH-1" target="QB1D0kBepASb9x_ZZ9DH-12" edge="1">
          <mxGeometry relative="1" as="geometry">
            <mxPoint x="370" y="580" as="sourcePoint" />
            <mxPoint x="530" y="580" as="targetPoint" />
          </mxGeometry>
        </mxCell>
        <mxCell id="QB1D0kBepASb9x_ZZ9DH-41" value="" style="endArrow=none;html=1;rounded=0;entryX=0.977;entryY=0.583;entryDx=0;entryDy=0;entryPerimeter=0;" parent="1" source="QB1D0kBepASb9x_ZZ9DH-18" target="QB1D0kBepASb9x_ZZ9DH-1" edge="1">
          <mxGeometry relative="1" as="geometry">
            <mxPoint x="370" y="580" as="sourcePoint" />
            <mxPoint x="530" y="580" as="targetPoint" />
          </mxGeometry>
        </mxCell>
        <mxCell id="QB1D0kBepASb9x_ZZ9DH-42" value="" style="endArrow=none;html=1;rounded=0;entryX=0.85;entryY=0.989;entryDx=0;entryDy=0;entryPerimeter=0;" parent="1" source="QB1D0kBepASb9x_ZZ9DH-16" target="QB1D0kBepASb9x_ZZ9DH-1" edge="1">
          <mxGeometry relative="1" as="geometry">
            <mxPoint x="370" y="580" as="sourcePoint" />
            <mxPoint x="530" y="580" as="targetPoint" />
          </mxGeometry>
        </mxCell>
        <mxCell id="QB1D0kBepASb9x_ZZ9DH-44" value="" style="endArrow=none;html=1;rounded=0;" parent="1" source="QB1D0kBepASb9x_ZZ9DH-1" target="QB1D0kBepASb9x_ZZ9DH-17" edge="1">
          <mxGeometry relative="1" as="geometry">
            <mxPoint x="370" y="580" as="sourcePoint" />
            <mxPoint x="530" y="580" as="targetPoint" />
          </mxGeometry>
        </mxCell>
        <mxCell id="QB1D0kBepASb9x_ZZ9DH-45" value="" style="endArrow=none;html=1;rounded=0;" parent="1" source="QB1D0kBepASb9x_ZZ9DH-1" edge="1">
          <mxGeometry relative="1" as="geometry">
            <mxPoint x="370" y="580" as="sourcePoint" />
            <mxPoint x="286" y="620" as="targetPoint" />
          </mxGeometry>
        </mxCell>
        <mxCell id="QB1D0kBepASb9x_ZZ9DH-46" value="Phone.NO" style="ellipse;shape=doubleEllipse;margin=3;whiteSpace=wrap;html=1;align=center;" parent="1" vertex="1">
          <mxGeometry x="130" y="510" width="60" height="40" as="geometry" />
        </mxCell>
        <mxCell id="QB1D0kBepASb9x_ZZ9DH-47" value="Email" style="ellipse;shape=doubleEllipse;margin=3;whiteSpace=wrap;html=1;align=center;" parent="1" vertex="1">
          <mxGeometry x="60" y="520" width="60" height="40" as="geometry" />
        </mxCell>
        <mxCell id="QB1D0kBepASb9x_ZZ9DH-48" value="" style="endArrow=none;html=1;rounded=0;" parent="1" source="QB1D0kBepASb9x_ZZ9DH-2" target="QB1D0kBepASb9x_ZZ9DH-47" edge="1">
          <mxGeometry relative="1" as="geometry">
            <mxPoint x="370" y="580" as="sourcePoint" />
            <mxPoint x="530" y="580" as="targetPoint" />
          </mxGeometry>
        </mxCell>
        <mxCell id="QB1D0kBepASb9x_ZZ9DH-49" value="" style="endArrow=none;html=1;rounded=0;" parent="1" source="QB1D0kBepASb9x_ZZ9DH-2" target="QB1D0kBepASb9x_ZZ9DH-46" edge="1">
          <mxGeometry relative="1" as="geometry">
            <mxPoint x="370" y="580" as="sourcePoint" />
            <mxPoint x="530" y="580" as="targetPoint" />
          </mxGeometry>
        </mxCell>
        <mxCell id="QB1D0kBepASb9x_ZZ9DH-50" value="AdmainID" style="ellipse;whiteSpace=wrap;html=1;align=center;fontStyle=4;" parent="1" vertex="1">
          <mxGeometry x="200" y="515" width="60" height="30" as="geometry" />
        </mxCell>
        <mxCell id="QB1D0kBepASb9x_ZZ9DH-51" value="" style="endArrow=none;html=1;rounded=0;exitX=1;exitY=0.25;exitDx=0;exitDy=0;" parent="1" source="QB1D0kBepASb9x_ZZ9DH-2" target="QB1D0kBepASb9x_ZZ9DH-50" edge="1">
          <mxGeometry relative="1" as="geometry">
            <mxPoint x="370" y="580" as="sourcePoint" />
            <mxPoint x="530" y="580" as="targetPoint" />
          </mxGeometry>
        </mxCell>
        <mxCell id="QB1D0kBepASb9x_ZZ9DH-52" value="Password" style="ellipse;whiteSpace=wrap;html=1;align=center;" parent="1" vertex="1">
          <mxGeometry x="50" y="610" width="50" height="40" as="geometry" />
        </mxCell>
        <mxCell id="QB1D0kBepASb9x_ZZ9DH-53" value="Name" style="ellipse;whiteSpace=wrap;html=1;align=center;" parent="1" vertex="1">
          <mxGeometry x="30" y="565" width="50" height="30" as="geometry" />
        </mxCell>
        <mxCell id="QB1D0kBepASb9x_ZZ9DH-55" value="" style="endArrow=none;html=1;rounded=0;" parent="1" source="QB1D0kBepASb9x_ZZ9DH-2" edge="1">
          <mxGeometry relative="1" as="geometry">
            <mxPoint x="370" y="580" as="sourcePoint" />
            <mxPoint x="80" y="580" as="targetPoint" />
          </mxGeometry>
        </mxCell>
        <mxCell id="QB1D0kBepASb9x_ZZ9DH-56" value="" style="endArrow=none;html=1;rounded=0;exitX=0.191;exitY=1.057;exitDx=0;exitDy=0;exitPerimeter=0;" parent="1" source="QB1D0kBepASb9x_ZZ9DH-2" target="QB1D0kBepASb9x_ZZ9DH-52" edge="1">
          <mxGeometry relative="1" as="geometry">
            <mxPoint x="370" y="580" as="sourcePoint" />
            <mxPoint x="530" y="580" as="targetPoint" />
          </mxGeometry>
        </mxCell>
        <mxCell id="QB1D0kBepASb9x_ZZ9DH-59" value="1" style="text;html=1;align=center;verticalAlign=middle;resizable=0;points=[];autosize=1;strokeColor=none;fillColor=none;" parent="1" vertex="1">
          <mxGeometry x="195" y="568" width="30" height="30" as="geometry" />
        </mxCell>
        <mxCell id="QB1D0kBepASb9x_ZZ9DH-60" value="M" style="text;html=1;align=center;verticalAlign=middle;resizable=0;points=[];autosize=1;strokeColor=none;fillColor=none;" parent="1" vertex="1">
          <mxGeometry x="330" y="575" width="30" height="30" as="geometry" />
        </mxCell>
        <mxCell id="QB1D0kBepASb9x_ZZ9DH-62" value="1" style="text;html=1;align=center;verticalAlign=middle;resizable=0;points=[];autosize=1;strokeColor=none;fillColor=none;" parent="1" vertex="1">
          <mxGeometry x="380" y="540" width="30" height="30" as="geometry" />
        </mxCell>
        <mxCell id="QB1D0kBepASb9x_ZZ9DH-63" value="" style="endArrow=none;html=1;rounded=0;entryX=0.25;entryY=0;entryDx=0;entryDy=0;" parent="1" source="QB1D0kBepASb9x_ZZ9DH-5" target="QB1D0kBepASb9x_ZZ9DH-61" edge="1">
          <mxGeometry relative="1" as="geometry">
            <mxPoint x="245.5" y="400" as="sourcePoint" />
            <mxPoint x="358.5" y="530" as="targetPoint" />
          </mxGeometry>
        </mxCell>
        <mxCell id="QB1D0kBepASb9x_ZZ9DH-61" value="M" style="text;html=1;align=center;verticalAlign=middle;resizable=0;points=[];autosize=1;strokeColor=none;fillColor=none;" parent="1" vertex="1">
          <mxGeometry x="238.5" y="400" width="30" height="30" as="geometry" />
        </mxCell>
        <mxCell id="QB1D0kBepASb9x_ZZ9DH-64" value="isValid" style="ellipse;whiteSpace=wrap;html=1;align=center;" parent="1" vertex="1">
          <mxGeometry x="218.5" y="300" width="50" height="40" as="geometry" />
        </mxCell>
        <mxCell id="QB1D0kBepASb9x_ZZ9DH-65" value="OTPcode" style="ellipse;whiteSpace=wrap;html=1;align=center;" parent="1" vertex="1">
          <mxGeometry x="138.5" y="300" width="60" height="40" as="geometry" />
        </mxCell>
        <mxCell id="QB1D0kBepASb9x_ZZ9DH-66" value="" style="endArrow=none;html=1;rounded=0;exitX=0.5;exitY=1;exitDx=0;exitDy=0;" parent="1" source="QB1D0kBepASb9x_ZZ9DH-64" target="QB1D0kBepASb9x_ZZ9DH-5" edge="1">
          <mxGeometry relative="1" as="geometry">
            <mxPoint x="198.5" y="460" as="sourcePoint" />
            <mxPoint x="358.5" y="460" as="targetPoint" />
          </mxGeometry>
        </mxCell>
        <mxCell id="QB1D0kBepASb9x_ZZ9DH-67" value="" style="endArrow=none;html=1;rounded=0;" parent="1" source="QB1D0kBepASb9x_ZZ9DH-65" target="QB1D0kBepASb9x_ZZ9DH-5" edge="1">
          <mxGeometry relative="1" as="geometry">
            <mxPoint x="198.5" y="460" as="sourcePoint" />
            <mxPoint x="358.5" y="460" as="targetPoint" />
          </mxGeometry>
        </mxCell>
        <mxCell id="QB1D0kBepASb9x_ZZ9DH-69" value="" style="endArrow=none;html=1;rounded=0;" parent="1" source="EV8ZqtbG6k8P1l08Tk5u-43" target="QB1D0kBepASb9x_ZZ9DH-5" edge="1">
          <mxGeometry relative="1" as="geometry">
            <mxPoint x="158.40445835608375" y="376.1961783342433" as="sourcePoint" />
            <mxPoint x="358.5" y="460" as="targetPoint" />
          </mxGeometry>
        </mxCell>
        <mxCell id="EV8ZqtbG6k8P1l08Tk5u-1" value="images" style="ellipse;whiteSpace=wrap;html=1;align=center;" parent="1" vertex="1">
          <mxGeometry x="327.5" y="340" width="50" height="30" as="geometry" />
        </mxCell>
        <mxCell id="EV8ZqtbG6k8P1l08Tk5u-2" value="timetamp" style="ellipse;whiteSpace=wrap;html=1;align=center;" parent="1" vertex="1">
          <mxGeometry x="492.5" y="300" width="60" height="40" as="geometry" />
        </mxCell>
        <mxCell id="EV8ZqtbG6k8P1l08Tk5u-3" value="contant" style="ellipse;whiteSpace=wrap;html=1;align=center;" parent="1" vertex="1">
          <mxGeometry x="357.5" y="300" width="45" height="40" as="geometry" />
        </mxCell>
        <mxCell id="EV8ZqtbG6k8P1l08Tk5u-4" value="PostID" style="ellipse;whiteSpace=wrap;html=1;align=center;fontStyle=4;" parent="1" vertex="1">
          <mxGeometry x="417.5" y="300" width="50" height="30" as="geometry" />
        </mxCell>
        <mxCell id="EV8ZqtbG6k8P1l08Tk5u-5" value="get" style="shape=rhombus;double=1;perimeter=rhombusPerimeter;whiteSpace=wrap;html=1;align=center;" parent="1" vertex="1">
          <mxGeometry x="253.5" y="430" width="60" height="30" as="geometry" />
        </mxCell>
        <mxCell id="EV8ZqtbG6k8P1l08Tk5u-6" value="" style="endArrow=none;html=1;rounded=0;" parent="1" source="QB1D0kBepASb9x_ZZ9DH-1" target="QB1D0kBepASb9x_ZZ9DH-57" edge="1">
          <mxGeometry relative="1" as="geometry">
            <mxPoint x="429" y="570" as="sourcePoint" />
            <mxPoint x="456" y="430" as="targetPoint" />
          </mxGeometry>
        </mxCell>
        <mxCell id="QB1D0kBepASb9x_ZZ9DH-57" value="post" style="shape=rhombus;perimeter=rhombusPerimeter;whiteSpace=wrap;html=1;align=center;" parent="1" vertex="1">
          <mxGeometry x="415" y="465" width="55" height="50" as="geometry" />
        </mxCell>
        <mxCell id="EV8ZqtbG6k8P1l08Tk5u-7" value="N" style="text;html=1;align=center;verticalAlign=middle;resizable=0;points=[];autosize=1;strokeColor=none;fillColor=none;" parent="1" vertex="1">
          <mxGeometry x="425" y="548" width="30" height="30" as="geometry" />
        </mxCell>
        <mxCell id="EV8ZqtbG6k8P1l08Tk5u-9" value="M" style="text;html=1;align=center;verticalAlign=middle;resizable=0;points=[];autosize=1;strokeColor=none;fillColor=none;" parent="1" vertex="1">
          <mxGeometry x="437.5" y="375" width="30" height="30" as="geometry" />
        </mxCell>
        <mxCell id="EV8ZqtbG6k8P1l08Tk5u-10" value="" style="endArrow=none;html=1;rounded=0;" parent="1" target="QB1D0kBepASb9x_ZZ9DH-7" edge="1" source="EV8ZqtbG6k8P1l08Tk5u-2">
          <mxGeometry relative="1" as="geometry">
            <mxPoint x="497.5" y="330" as="sourcePoint" />
            <mxPoint x="477.5" y="500" as="targetPoint" />
          </mxGeometry>
        </mxCell>
        <mxCell id="EV8ZqtbG6k8P1l08Tk5u-11" value="" style="endArrow=none;html=1;rounded=0;" parent="1" source="EV8ZqtbG6k8P1l08Tk5u-4" target="QB1D0kBepASb9x_ZZ9DH-7" edge="1">
          <mxGeometry relative="1" as="geometry">
            <mxPoint x="427.5" y="425" as="sourcePoint" />
            <mxPoint x="587.5" y="425" as="targetPoint" />
          </mxGeometry>
        </mxCell>
        <mxCell id="EV8ZqtbG6k8P1l08Tk5u-12" value="" style="endArrow=none;html=1;rounded=0;" parent="1" source="EV8ZqtbG6k8P1l08Tk5u-3" target="QB1D0kBepASb9x_ZZ9DH-7" edge="1">
          <mxGeometry relative="1" as="geometry">
            <mxPoint x="317.5" y="500" as="sourcePoint" />
            <mxPoint x="477.5" y="500" as="targetPoint" />
          </mxGeometry>
        </mxCell>
        <mxCell id="EV8ZqtbG6k8P1l08Tk5u-13" value="" style="endArrow=none;html=1;rounded=0;" parent="1" source="EV8ZqtbG6k8P1l08Tk5u-1" target="QB1D0kBepASb9x_ZZ9DH-7" edge="1">
          <mxGeometry relative="1" as="geometry">
            <mxPoint x="317.5" y="500" as="sourcePoint" />
            <mxPoint x="477.5" y="500" as="targetPoint" />
          </mxGeometry>
        </mxCell>
        <mxCell id="EV8ZqtbG6k8P1l08Tk5u-17" value="" style="endArrow=none;html=1;rounded=0;exitX=0;exitY=0.5;exitDx=0;exitDy=0;" parent="1" source="QB1D0kBepASb9x_ZZ9DH-8" target="EV8ZqtbG6k8P1l08Tk5u-15" edge="1">
          <mxGeometry relative="1" as="geometry">
            <mxPoint x="670" y="510" as="sourcePoint" />
            <mxPoint x="620" y="530" as="targetPoint" />
          </mxGeometry>
        </mxCell>
        <mxCell id="EV8ZqtbG6k8P1l08Tk5u-15" value="denote" style="shape=rhombus;double=1;perimeter=rhombusPerimeter;whiteSpace=wrap;html=1;align=center;" parent="1" vertex="1">
          <mxGeometry x="560" y="505" width="60" height="45" as="geometry" />
        </mxCell>
        <mxCell id="EV8ZqtbG6k8P1l08Tk5u-18" value="N" style="text;html=1;align=center;verticalAlign=middle;resizable=0;points=[];autosize=1;strokeColor=none;fillColor=none;" parent="1" vertex="1">
          <mxGeometry x="470" y="560" width="30" height="30" as="geometry" />
        </mxCell>
        <mxCell id="EV8ZqtbG6k8P1l08Tk5u-19" value="M" style="text;html=1;align=center;verticalAlign=middle;resizable=0;points=[];autosize=1;strokeColor=none;fillColor=none;" parent="1" vertex="1">
          <mxGeometry x="645" y="488" width="30" height="30" as="geometry" />
        </mxCell>
        <mxCell id="EV8ZqtbG6k8P1l08Tk5u-25" value="" style="endArrow=none;html=1;rounded=0;entryX=0.5;entryY=1;entryDx=0;entryDy=0;exitX=0.4;exitY=-0.05;exitDx=0;exitDy=0;exitPerimeter=0;" parent="1" source="QB1D0kBepASb9x_ZZ9DH-9" target="QB1D0kBepASb9x_ZZ9DH-8" edge="1">
          <mxGeometry relative="1" as="geometry">
            <mxPoint x="340" y="570" as="sourcePoint" />
            <mxPoint x="500" y="570" as="targetPoint" />
          </mxGeometry>
        </mxCell>
        <mxCell id="EV8ZqtbG6k8P1l08Tk5u-29" value="M" style="text;html=1;align=center;verticalAlign=middle;resizable=0;points=[];autosize=1;strokeColor=none;fillColor=none;" parent="1" vertex="1">
          <mxGeometry x="710" y="525" width="30" height="30" as="geometry" />
        </mxCell>
        <mxCell id="EV8ZqtbG6k8P1l08Tk5u-30" value="N" style="text;html=1;align=center;verticalAlign=middle;resizable=0;points=[];autosize=1;strokeColor=none;fillColor=none;" parent="1" vertex="1">
          <mxGeometry x="735" y="558" width="30" height="30" as="geometry" />
        </mxCell>
        <mxCell id="EV8ZqtbG6k8P1l08Tk5u-34" value="Message" style="ellipse;whiteSpace=wrap;html=1;align=center;" parent="1" vertex="1">
          <mxGeometry x="720" y="360" width="60" height="40" as="geometry" />
        </mxCell>
        <mxCell id="EV8ZqtbG6k8P1l08Tk5u-35" value="timeStamp" style="ellipse;whiteSpace=wrap;html=1;align=center;" parent="1" vertex="1">
          <mxGeometry x="670" y="325" width="60" height="40" as="geometry" />
        </mxCell>
        <mxCell id="EV8ZqtbG6k8P1l08Tk5u-36" value="contant" style="ellipse;whiteSpace=wrap;html=1;align=center;" parent="1" vertex="1">
          <mxGeometry x="600" y="330" width="50" height="30" as="geometry" />
        </mxCell>
        <mxCell id="EV8ZqtbG6k8P1l08Tk5u-39" value="" style="endArrow=none;html=1;rounded=0;exitX=0.75;exitY=0;exitDx=0;exitDy=0;" parent="1" source="QB1D0kBepASb9x_ZZ9DH-1" target="EV8ZqtbG6k8P1l08Tk5u-41" edge="1">
          <mxGeometry relative="1" as="geometry">
            <mxPoint x="450" y="570" as="sourcePoint" />
            <mxPoint x="498.33333333333326" y="506.66666666666663" as="targetPoint" />
          </mxGeometry>
        </mxCell>
        <mxCell id="EV8ZqtbG6k8P1l08Tk5u-40" value="chat" style="shape=ext;margin=3;double=1;whiteSpace=wrap;html=1;align=center;" parent="1" vertex="1">
          <mxGeometry x="615" y="400" width="100" height="40" as="geometry" />
        </mxCell>
        <mxCell id="EV8ZqtbG6k8P1l08Tk5u-42" value="" style="endArrow=none;html=1;rounded=0;exitX=0.75;exitY=0;exitDx=0;exitDy=0;" parent="1" target="EV8ZqtbG6k8P1l08Tk5u-41" edge="1">
          <mxGeometry relative="1" as="geometry">
            <mxPoint x="538.3333333333333" y="486.66666666666663" as="sourcePoint" />
            <mxPoint x="624" y="440" as="targetPoint" />
          </mxGeometry>
        </mxCell>
        <mxCell id="EV8ZqtbG6k8P1l08Tk5u-41" value="chat" style="shape=rhombus;double=1;perimeter=rhombusPerimeter;whiteSpace=wrap;html=1;align=center;" parent="1" vertex="1">
          <mxGeometry x="500" y="458" width="80" height="50" as="geometry" />
        </mxCell>
        <mxCell id="EV8ZqtbG6k8P1l08Tk5u-43" value="&lt;span style=&quot;border-bottom: 1px dotted&quot;&gt;OTPID&lt;/span&gt;" style="ellipse;whiteSpace=wrap;html=1;align=center;" parent="1" vertex="1">
          <mxGeometry x="78.5" y="325" width="61" height="35" as="geometry" />
        </mxCell>
        <mxCell id="EV8ZqtbG6k8P1l08Tk5u-45" value="&lt;span style=&quot;border-bottom: 1px dotted&quot;&gt;MessageID&lt;/span&gt;" style="ellipse;whiteSpace=wrap;html=1;align=center;" parent="1" vertex="1">
          <mxGeometry x="547.5" y="370" width="60" height="40" as="geometry" />
        </mxCell>
        <mxCell id="EV8ZqtbG6k8P1l08Tk5u-46" value="&lt;span style=&quot;border-bottom: 1px dotted&quot;&gt;ChatID&lt;/span&gt;" style="ellipse;whiteSpace=wrap;html=1;align=center;" parent="1" vertex="1">
          <mxGeometry x="735" y="410" width="60" height="40" as="geometry" />
        </mxCell>
        <mxCell id="EV8ZqtbG6k8P1l08Tk5u-49" value="" style="endArrow=none;html=1;rounded=0;" parent="1" source="EV8ZqtbG6k8P1l08Tk5u-45" target="EV8ZqtbG6k8P1l08Tk5u-40" edge="1">
          <mxGeometry relative="1" as="geometry">
            <mxPoint x="440" y="480" as="sourcePoint" />
            <mxPoint x="600" y="480" as="targetPoint" />
          </mxGeometry>
        </mxCell>
        <mxCell id="EV8ZqtbG6k8P1l08Tk5u-50" value="" style="endArrow=none;html=1;rounded=0;" parent="1" source="EV8ZqtbG6k8P1l08Tk5u-46" target="EV8ZqtbG6k8P1l08Tk5u-40" edge="1">
          <mxGeometry relative="1" as="geometry">
            <mxPoint x="440" y="480" as="sourcePoint" />
            <mxPoint x="600" y="480" as="targetPoint" />
          </mxGeometry>
        </mxCell>
        <mxCell id="EV8ZqtbG6k8P1l08Tk5u-51" value="" style="endArrow=none;html=1;rounded=0;" parent="1" source="EV8ZqtbG6k8P1l08Tk5u-34" target="EV8ZqtbG6k8P1l08Tk5u-40" edge="1">
          <mxGeometry relative="1" as="geometry">
            <mxPoint x="440" y="480" as="sourcePoint" />
            <mxPoint x="600" y="480" as="targetPoint" />
          </mxGeometry>
        </mxCell>
        <mxCell id="EV8ZqtbG6k8P1l08Tk5u-52" value="" style="endArrow=none;html=1;rounded=0;entryX=0.68;entryY=-0.025;entryDx=0;entryDy=0;entryPerimeter=0;" parent="1" source="EV8ZqtbG6k8P1l08Tk5u-35" target="EV8ZqtbG6k8P1l08Tk5u-40" edge="1">
          <mxGeometry relative="1" as="geometry">
            <mxPoint x="440" y="480" as="sourcePoint" />
            <mxPoint x="600" y="480" as="targetPoint" />
          </mxGeometry>
        </mxCell>
        <mxCell id="EV8ZqtbG6k8P1l08Tk5u-53" value="" style="endArrow=none;html=1;rounded=0;entryX=0.4;entryY=0;entryDx=0;entryDy=0;entryPerimeter=0;" parent="1" source="EV8ZqtbG6k8P1l08Tk5u-36" target="EV8ZqtbG6k8P1l08Tk5u-40" edge="1">
          <mxGeometry relative="1" as="geometry">
            <mxPoint x="440" y="480" as="sourcePoint" />
            <mxPoint x="600" y="480" as="targetPoint" />
          </mxGeometry>
        </mxCell>
        <mxCell id="EV8ZqtbG6k8P1l08Tk5u-55" value="BankID" style="ellipse;whiteSpace=wrap;html=1;align=center;fontStyle=4;" parent="1" vertex="1">
          <mxGeometry x="775" y="630" width="70" height="40" as="geometry" />
        </mxCell>
        <mxCell id="EV8ZqtbG6k8P1l08Tk5u-56" value="contantDetail" style="ellipse;whiteSpace=wrap;html=1;align=center;" parent="1" vertex="1">
          <mxGeometry x="625" y="553" width="80" height="40" as="geometry" />
        </mxCell>
        <mxCell id="EV8ZqtbG6k8P1l08Tk5u-57" value="location" style="ellipse;whiteSpace=wrap;html=1;align=center;" parent="1" vertex="1">
          <mxGeometry x="775" y="525" width="60" height="40" as="geometry" />
        </mxCell>
        <mxCell id="EV8ZqtbG6k8P1l08Tk5u-58" value="name" style="ellipse;whiteSpace=wrap;html=1;align=center;" parent="1" vertex="1">
          <mxGeometry x="710" y="630" width="50" height="30" as="geometry" />
        </mxCell>
        <mxCell id="EV8ZqtbG6k8P1l08Tk5u-59" style="edgeStyle=orthogonalEdgeStyle;rounded=0;orthogonalLoop=1;jettySize=auto;html=1;exitX=0.5;exitY=1;exitDx=0;exitDy=0;" parent="1" source="QB1D0kBepASb9x_ZZ9DH-9" target="QB1D0kBepASb9x_ZZ9DH-9" edge="1">
          <mxGeometry relative="1" as="geometry" />
        </mxCell>
        <mxCell id="EV8ZqtbG6k8P1l08Tk5u-63" value="" style="endArrow=none;html=1;rounded=0;" parent="1" source="QB1D0kBepASb9x_ZZ9DH-9" target="EV8ZqtbG6k8P1l08Tk5u-57" edge="1">
          <mxGeometry relative="1" as="geometry">
            <mxPoint x="440" y="600" as="sourcePoint" />
            <mxPoint x="600" y="600" as="targetPoint" />
          </mxGeometry>
        </mxCell>
        <mxCell id="EV8ZqtbG6k8P1l08Tk5u-64" value="" style="endArrow=none;html=1;rounded=0;" parent="1" source="EV8ZqtbG6k8P1l08Tk5u-55" target="QB1D0kBepASb9x_ZZ9DH-9" edge="1">
          <mxGeometry relative="1" as="geometry">
            <mxPoint x="440" y="600" as="sourcePoint" />
            <mxPoint x="600" y="600" as="targetPoint" />
          </mxGeometry>
        </mxCell>
        <mxCell id="EV8ZqtbG6k8P1l08Tk5u-65" value="" style="endArrow=none;html=1;rounded=0;" parent="1" source="EV8ZqtbG6k8P1l08Tk5u-58" target="QB1D0kBepASb9x_ZZ9DH-9" edge="1">
          <mxGeometry relative="1" as="geometry">
            <mxPoint x="440" y="600" as="sourcePoint" />
            <mxPoint x="600" y="600" as="targetPoint" />
          </mxGeometry>
        </mxCell>
        <mxCell id="EV8ZqtbG6k8P1l08Tk5u-66" value="" style="endArrow=none;html=1;rounded=0;" parent="1" source="EV8ZqtbG6k8P1l08Tk5u-56" target="QB1D0kBepASb9x_ZZ9DH-9" edge="1">
          <mxGeometry relative="1" as="geometry">
            <mxPoint x="440" y="600" as="sourcePoint" />
            <mxPoint x="600" y="600" as="targetPoint" />
          </mxGeometry>
        </mxCell>
        <mxCell id="EV8ZqtbG6k8P1l08Tk5u-67" value="FeedBack" style="shape=ext;margin=3;double=1;whiteSpace=wrap;html=1;align=center;" parent="1" vertex="1">
          <mxGeometry x="652.5" y="710" width="100" height="40" as="geometry" />
        </mxCell>
        <mxCell id="EV8ZqtbG6k8P1l08Tk5u-68" value="feedbackID" style="ellipse;whiteSpace=wrap;html=1;align=center;" parent="1" vertex="1">
          <mxGeometry x="727.5" y="770" width="70" height="40" as="geometry" />
        </mxCell>
        <mxCell id="EV8ZqtbG6k8P1l08Tk5u-69" value="value" style="ellipse;whiteSpace=wrap;html=1;align=center;" parent="1" vertex="1">
          <mxGeometry x="642.5" y="780" width="40" height="40" as="geometry" />
        </mxCell>
        <mxCell id="EV8ZqtbG6k8P1l08Tk5u-70" value="" style="endArrow=none;html=1;rounded=0;" parent="1" target="QB1D0kBepASb9x_ZZ9DH-9" edge="1">
          <mxGeometry relative="1" as="geometry">
            <mxPoint x="490" y="600" as="sourcePoint" />
            <mxPoint x="600" y="630" as="targetPoint" />
            <Array as="points">
              <mxPoint x="620" y="610" />
            </Array>
          </mxGeometry>
        </mxCell>
        <mxCell id="EV8ZqtbG6k8P1l08Tk5u-71" value="M" style="text;html=1;align=center;verticalAlign=middle;resizable=0;points=[];autosize=1;strokeColor=none;fillColor=none;" parent="1" vertex="1">
          <mxGeometry x="705" y="588" width="30" height="30" as="geometry" />
        </mxCell>
        <mxCell id="EV8ZqtbG6k8P1l08Tk5u-74" value="" style="endArrow=none;html=1;rounded=0;exitX=0;exitY=1;exitDx=0;exitDy=0;" parent="1" source="QB1D0kBepASb9x_ZZ9DH-19" target="QB1D0kBepASb9x_ZZ9DH-1" edge="1">
          <mxGeometry relative="1" as="geometry">
            <mxPoint x="440" y="630" as="sourcePoint" />
            <mxPoint x="600" y="630" as="targetPoint" />
          </mxGeometry>
        </mxCell>
        <mxCell id="EV8ZqtbG6k8P1l08Tk5u-75" value="" style="endArrow=none;html=1;rounded=0;" parent="1" source="EV8ZqtbG6k8P1l08Tk5u-69" target="EV8ZqtbG6k8P1l08Tk5u-67" edge="1">
          <mxGeometry relative="1" as="geometry">
            <mxPoint x="435" y="695" as="sourcePoint" />
            <mxPoint x="595" y="695" as="targetPoint" />
          </mxGeometry>
        </mxCell>
        <mxCell id="EV8ZqtbG6k8P1l08Tk5u-76" value="" style="endArrow=none;html=1;rounded=0;" parent="1" source="EV8ZqtbG6k8P1l08Tk5u-68" target="EV8ZqtbG6k8P1l08Tk5u-67" edge="1">
          <mxGeometry relative="1" as="geometry">
            <mxPoint x="435" y="695" as="sourcePoint" />
            <mxPoint x="595" y="695" as="targetPoint" />
          </mxGeometry>
        </mxCell>
        <mxCell id="EV8ZqtbG6k8P1l08Tk5u-78" value="date" style="ellipse;whiteSpace=wrap;html=1;align=center;" parent="1" vertex="1">
          <mxGeometry x="660" y="450" width="40" height="30" as="geometry" />
        </mxCell>
        <mxCell id="EV8ZqtbG6k8P1l08Tk5u-79" value="state" style="ellipse;whiteSpace=wrap;html=1;align=center;" parent="1" vertex="1">
          <mxGeometry x="710" y="450" width="40" height="30" as="geometry" />
        </mxCell>
        <mxCell id="EV8ZqtbG6k8P1l08Tk5u-80" value="" style="endArrow=none;html=1;rounded=0;" parent="1" source="QB1D0kBepASb9x_ZZ9DH-8" target="EV8ZqtbG6k8P1l08Tk5u-83" edge="1">
          <mxGeometry relative="1" as="geometry">
            <mxPoint x="440" y="510" as="sourcePoint" />
            <mxPoint x="600" y="510" as="targetPoint" />
          </mxGeometry>
        </mxCell>
        <mxCell id="EV8ZqtbG6k8P1l08Tk5u-81" value="" style="endArrow=none;html=1;rounded=0;" parent="1" source="QB1D0kBepASb9x_ZZ9DH-8" target="EV8ZqtbG6k8P1l08Tk5u-79" edge="1">
          <mxGeometry relative="1" as="geometry">
            <mxPoint x="440" y="510" as="sourcePoint" />
            <mxPoint x="600" y="510" as="targetPoint" />
          </mxGeometry>
        </mxCell>
        <mxCell id="EV8ZqtbG6k8P1l08Tk5u-82" value="" style="endArrow=none;html=1;rounded=0;" parent="1" source="QB1D0kBepASb9x_ZZ9DH-8" target="EV8ZqtbG6k8P1l08Tk5u-78" edge="1">
          <mxGeometry relative="1" as="geometry">
            <mxPoint x="440" y="510" as="sourcePoint" />
            <mxPoint x="600" y="510" as="targetPoint" />
          </mxGeometry>
        </mxCell>
        <mxCell id="EV8ZqtbG6k8P1l08Tk5u-83" value="&lt;span style=&quot;border-bottom: 1px dotted&quot;&gt;DonateID&lt;/span&gt;" style="ellipse;whiteSpace=wrap;html=1;align=center;" parent="1" vertex="1">
          <mxGeometry x="775" y="450" width="60" height="40" as="geometry" />
        </mxCell>
        <mxCell id="EV8ZqtbG6k8P1l08Tk5u-84" value="Notification" style="shape=ext;margin=3;double=1;whiteSpace=wrap;html=1;align=center;" parent="1" vertex="1">
          <mxGeometry x="90" y="730" width="100" height="40" as="geometry" />
        </mxCell>
        <mxCell id="EV8ZqtbG6k8P1l08Tk5u-85" value="" style="endArrow=none;html=1;rounded=0;exitX=1;exitY=0;exitDx=0;exitDy=0;" parent="1" source="WxoyU-_LS03TnoKLufY0-20" target="QB1D0kBepASb9x_ZZ9DH-1" edge="1">
          <mxGeometry relative="1" as="geometry">
            <mxPoint x="280" y="680" as="sourcePoint" />
            <mxPoint x="378" y="619.9999999999999" as="targetPoint" />
          </mxGeometry>
        </mxCell>
        <mxCell id="EV8ZqtbG6k8P1l08Tk5u-86" value="&lt;span style=&quot;border-bottom: 1px dotted&quot;&gt;NotificationID&lt;/span&gt;" style="ellipse;whiteSpace=wrap;html=1;align=center;" parent="1" vertex="1">
          <mxGeometry x="100" y="682.5" width="78" height="35" as="geometry" />
        </mxCell>
        <mxCell id="EV8ZqtbG6k8P1l08Tk5u-87" value="status" style="ellipse;whiteSpace=wrap;html=1;align=center;" parent="1" vertex="1">
          <mxGeometry x="130" y="790" width="50" height="40" as="geometry" />
        </mxCell>
        <mxCell id="EV8ZqtbG6k8P1l08Tk5u-88" value="timeTamp" style="ellipse;whiteSpace=wrap;html=1;align=center;" parent="1" vertex="1">
          <mxGeometry x="25" y="692" width="60" height="38" as="geometry" />
        </mxCell>
        <mxCell id="EV8ZqtbG6k8P1l08Tk5u-89" value="Message" style="ellipse;whiteSpace=wrap;html=1;align=center;" parent="1" vertex="1">
          <mxGeometry x="70" y="780" width="50" height="40" as="geometry" />
        </mxCell>
        <mxCell id="EV8ZqtbG6k8P1l08Tk5u-90" value="" style="endArrow=none;html=1;rounded=0;entryX=0.5;entryY=0;entryDx=0;entryDy=0;" parent="1" source="EV8ZqtbG6k8P1l08Tk5u-86" target="EV8ZqtbG6k8P1l08Tk5u-84" edge="1">
          <mxGeometry relative="1" as="geometry">
            <mxPoint x="170" y="670" as="sourcePoint" />
            <mxPoint x="330" y="670" as="targetPoint" />
          </mxGeometry>
        </mxCell>
        <mxCell id="EV8ZqtbG6k8P1l08Tk5u-91" value="1" style="text;html=1;align=center;verticalAlign=middle;resizable=0;points=[];autosize=1;strokeColor=none;fillColor=none;" parent="1" vertex="1">
          <mxGeometry x="350" y="600" width="30" height="30" as="geometry" />
        </mxCell>
        <mxCell id="EV8ZqtbG6k8P1l08Tk5u-92" value="M" style="text;html=1;align=center;verticalAlign=middle;resizable=0;points=[];autosize=1;strokeColor=none;fillColor=none;" parent="1" vertex="1">
          <mxGeometry x="181" y="735" width="30" height="30" as="geometry" />
        </mxCell>
        <mxCell id="EV8ZqtbG6k8P1l08Tk5u-93" value="" style="endArrow=none;html=1;rounded=0;exitX=1;exitY=0.75;exitDx=0;exitDy=0;" parent="1" source="QB1D0kBepASb9x_ZZ9DH-1" target="EV8ZqtbG6k8P1l08Tk5u-72" edge="1">
          <mxGeometry relative="1" as="geometry">
            <mxPoint x="475" y="600" as="sourcePoint" />
            <mxPoint x="730" y="600" as="targetPoint" />
          </mxGeometry>
        </mxCell>
        <mxCell id="EV8ZqtbG6k8P1l08Tk5u-72" value="1" style="text;html=1;align=center;verticalAlign=middle;resizable=0;points=[];autosize=1;strokeColor=none;fillColor=none;" parent="1" vertex="1">
          <mxGeometry x="510" y="585" width="30" height="30" as="geometry" />
        </mxCell>
        <mxCell id="EV8ZqtbG6k8P1l08Tk5u-96" value="" style="endArrow=none;html=1;rounded=0;exitX=1;exitY=0.75;exitDx=0;exitDy=0;" parent="1" source="QB1D0kBepASb9x_ZZ9DH-1" target="EV8ZqtbG6k8P1l08Tk5u-95" edge="1">
          <mxGeometry relative="1" as="geometry">
            <mxPoint x="475" y="600" as="sourcePoint" />
            <mxPoint x="617" y="670" as="targetPoint" />
          </mxGeometry>
        </mxCell>
        <mxCell id="EV8ZqtbG6k8P1l08Tk5u-95" value="1" style="text;html=1;align=center;verticalAlign=middle;resizable=0;points=[];autosize=1;strokeColor=none;fillColor=none;" parent="1" vertex="1">
          <mxGeometry x="480" y="598" width="30" height="30" as="geometry" />
        </mxCell>
        <mxCell id="EV8ZqtbG6k8P1l08Tk5u-98" value="" style="endArrow=none;html=1;rounded=0;" parent="1" source="QB1D0kBepASb9x_ZZ9DH-1" target="WxoyU-_LS03TnoKLufY0-14" edge="1">
          <mxGeometry relative="1" as="geometry">
            <mxPoint x="480" y="596.9900000000001" as="sourcePoint" />
            <mxPoint x="719.1999999999998" y="715" as="targetPoint" />
          </mxGeometry>
        </mxCell>
        <mxCell id="EV8ZqtbG6k8P1l08Tk5u-97" value="M" style="text;html=1;align=center;verticalAlign=middle;resizable=0;points=[];autosize=1;strokeColor=none;fillColor=none;" parent="1" vertex="1">
          <mxGeometry x="652.5" y="685" width="30" height="30" as="geometry" />
        </mxCell>
        <mxCell id="EV8ZqtbG6k8P1l08Tk5u-99" value="donation&lt;br&gt;History" style="ellipse;whiteSpace=wrap;html=1;align=center;" parent="1" vertex="1">
          <mxGeometry x="247.5" y="820" width="80" height="40" as="geometry" />
        </mxCell>
        <mxCell id="EV8ZqtbG6k8P1l08Tk5u-100" value="availability&lt;br&gt;Status" style="ellipse;whiteSpace=wrap;html=1;align=center;" parent="1" vertex="1">
          <mxGeometry x="338.75" y="830" width="80" height="40" as="geometry" />
        </mxCell>
        <mxCell id="EV8ZqtbG6k8P1l08Tk5u-101" value="requestHistory" style="ellipse;whiteSpace=wrap;html=1;align=center;" parent="1" vertex="1">
          <mxGeometry x="445" y="815" width="90" height="40" as="geometry" />
        </mxCell>
        <mxCell id="EV8ZqtbG6k8P1l08Tk5u-102" value="" style="endArrow=none;html=1;rounded=0;entryX=0.57;entryY=0.975;entryDx=0;entryDy=0;entryPerimeter=0;" parent="1" source="EV8ZqtbG6k8P1l08Tk5u-101" target="QB1D0kBepASb9x_ZZ9DH-3" edge="1">
          <mxGeometry relative="1" as="geometry">
            <mxPoint x="340" y="705" as="sourcePoint" />
            <mxPoint x="500" y="705" as="targetPoint" />
          </mxGeometry>
        </mxCell>
        <mxCell id="EV8ZqtbG6k8P1l08Tk5u-103" value="" style="endArrow=none;html=1;rounded=0;entryX=0.75;entryY=1;entryDx=0;entryDy=0;exitX=0.5;exitY=0;exitDx=0;exitDy=0;" parent="1" source="EV8ZqtbG6k8P1l08Tk5u-100" target="QB1D0kBepASb9x_ZZ9DH-4" edge="1">
          <mxGeometry relative="1" as="geometry">
            <mxPoint x="380.50249532229645" y="830.0249532229643" as="sourcePoint" />
            <mxPoint x="502.5" y="680" as="targetPoint" />
          </mxGeometry>
        </mxCell>
        <mxCell id="EV8ZqtbG6k8P1l08Tk5u-104" value="" style="endArrow=none;html=1;rounded=0;entryX=0.1;entryY=1;entryDx=0;entryDy=0;entryPerimeter=0;" parent="1" source="EV8ZqtbG6k8P1l08Tk5u-99" target="QB1D0kBepASb9x_ZZ9DH-4" edge="1">
          <mxGeometry relative="1" as="geometry">
            <mxPoint x="342.5" y="680" as="sourcePoint" />
            <mxPoint x="502.5" y="680" as="targetPoint" />
          </mxGeometry>
        </mxCell>
        <mxCell id="WxoyU-_LS03TnoKLufY0-1" value="" style="endArrow=none;html=1;rounded=0;exitX=0.426;exitY=0.046;exitDx=0;exitDy=0;exitPerimeter=0;" edge="1" parent="1" source="EV8ZqtbG6k8P1l08Tk5u-87" target="EV8ZqtbG6k8P1l08Tk5u-84">
          <mxGeometry width="50" height="50" relative="1" as="geometry">
            <mxPoint x="160" y="800" as="sourcePoint" />
            <mxPoint x="210" y="750" as="targetPoint" />
          </mxGeometry>
        </mxCell>
        <mxCell id="WxoyU-_LS03TnoKLufY0-2" value="" style="endArrow=none;html=1;rounded=0;" edge="1" parent="1" source="EV8ZqtbG6k8P1l08Tk5u-89" target="EV8ZqtbG6k8P1l08Tk5u-84">
          <mxGeometry width="50" height="50" relative="1" as="geometry">
            <mxPoint x="160" y="800" as="sourcePoint" />
            <mxPoint x="210" y="750" as="targetPoint" />
          </mxGeometry>
        </mxCell>
        <mxCell id="WxoyU-_LS03TnoKLufY0-3" value="" style="endArrow=none;html=1;rounded=0;" edge="1" parent="1" source="EV8ZqtbG6k8P1l08Tk5u-84" target="EV8ZqtbG6k8P1l08Tk5u-88">
          <mxGeometry width="50" height="50" relative="1" as="geometry">
            <mxPoint x="160" y="800" as="sourcePoint" />
            <mxPoint x="84.41039528235297" y="742.7483837124569" as="targetPoint" />
            <Array as="points">
              <mxPoint x="90" y="743" />
            </Array>
          </mxGeometry>
        </mxCell>
        <mxCell id="WxoyU-_LS03TnoKLufY0-6" value="is a" style="shape=rhombus;perimeter=rhombusPerimeter;whiteSpace=wrap;html=1;align=center;" vertex="1" parent="1">
          <mxGeometry x="452.5" y="670" width="47.5" height="40" as="geometry" />
        </mxCell>
        <mxCell id="WxoyU-_LS03TnoKLufY0-7" value="" style="endArrow=none;html=1;rounded=0;" edge="1" parent="1" source="QB1D0kBepASb9x_ZZ9DH-1" target="WxoyU-_LS03TnoKLufY0-6">
          <mxGeometry relative="1" as="geometry">
            <mxPoint x="420" y="700" as="sourcePoint" />
            <mxPoint x="580" y="700" as="targetPoint" />
          </mxGeometry>
        </mxCell>
        <mxCell id="WxoyU-_LS03TnoKLufY0-8" value="" style="endArrow=classic;html=1;rounded=0;entryX=0.5;entryY=1;entryDx=0;entryDy=0;" edge="1" parent="1" source="QB1D0kBepASb9x_ZZ9DH-3" target="WxoyU-_LS03TnoKLufY0-6">
          <mxGeometry width="50" height="50" relative="1" as="geometry">
            <mxPoint x="470" y="720" as="sourcePoint" />
            <mxPoint x="520" y="670" as="targetPoint" />
          </mxGeometry>
        </mxCell>
        <mxCell id="WxoyU-_LS03TnoKLufY0-9" value="" style="endArrow=none;html=1;rounded=0;exitX=0.5;exitY=1;exitDx=0;exitDy=0;" edge="1" parent="1" source="QB1D0kBepASb9x_ZZ9DH-1" target="WxoyU-_LS03TnoKLufY0-10">
          <mxGeometry relative="1" as="geometry">
            <mxPoint x="445" y="620" as="sourcePoint" />
            <mxPoint x="400" y="690" as="targetPoint" />
          </mxGeometry>
        </mxCell>
        <mxCell id="WxoyU-_LS03TnoKLufY0-10" value="is a" style="shape=rhombus;perimeter=rhombusPerimeter;whiteSpace=wrap;html=1;align=center;" vertex="1" parent="1">
          <mxGeometry x="382.5" y="695" width="47.5" height="40" as="geometry" />
        </mxCell>
        <mxCell id="WxoyU-_LS03TnoKLufY0-14" value="give" style="shape=rhombus;perimeter=rhombusPerimeter;whiteSpace=wrap;html=1;align=center;" vertex="1" parent="1">
          <mxGeometry x="567.5" y="640" width="47.5" height="40" as="geometry" />
        </mxCell>
        <mxCell id="WxoyU-_LS03TnoKLufY0-16" value="" style="endArrow=classic;html=1;rounded=0;" edge="1" parent="1" source="QB1D0kBepASb9x_ZZ9DH-4" target="WxoyU-_LS03TnoKLufY0-10">
          <mxGeometry width="50" height="50" relative="1" as="geometry">
            <mxPoint x="489" y="765" as="sourcePoint" />
            <mxPoint x="486" y="720" as="targetPoint" />
          </mxGeometry>
        </mxCell>
        <mxCell id="WxoyU-_LS03TnoKLufY0-18" value="" style="endArrow=none;html=1;rounded=0;entryX=1;entryY=1;entryDx=0;entryDy=0;" edge="1" parent="1" source="EV8ZqtbG6k8P1l08Tk5u-67" target="WxoyU-_LS03TnoKLufY0-14">
          <mxGeometry relative="1" as="geometry">
            <mxPoint x="483" y="620" as="sourcePoint" />
            <mxPoint x="585" y="663" as="targetPoint" />
          </mxGeometry>
        </mxCell>
        <mxCell id="WxoyU-_LS03TnoKLufY0-20" value="get" style="shape=rhombus;perimeter=rhombusPerimeter;whiteSpace=wrap;html=1;align=center;" vertex="1" parent="1">
          <mxGeometry x="252.5" y="670" width="47.5" height="40" as="geometry" />
        </mxCell>
        <mxCell id="WxoyU-_LS03TnoKLufY0-24" value="" style="endArrow=none;html=1;rounded=0;exitX=0;exitY=1;exitDx=0;exitDy=0;" edge="1" parent="1" source="WxoyU-_LS03TnoKLufY0-20" target="EV8ZqtbG6k8P1l08Tk5u-84">
          <mxGeometry relative="1" as="geometry">
            <mxPoint x="260" y="710" as="sourcePoint" />
            <mxPoint x="404" y="620" as="targetPoint" />
            <Array as="points" />
          </mxGeometry>
        </mxCell>
      </root>
    </mxGraphModel>
  </diagram>
</mxfile>
